<svg id="visual" viewBox="0 0 900 600" width="900" height="600" xmlns="http://www.w3.org/2000/svg" xmlns:xlink="http://www.w3.org/1999/xlink" version="1.1"><rect x="0" y="0" width="900" height="600" fill="#0066FF"></rect><path d="M0 492L21.5 482C43 472 86 452 128.8 447.5C171.7 443 214.3 454 257.2 451.2C300 448.3 343 431.7 385.8 443.7C428.7 455.7 471.3 496.3 514.2 496.7C557 497 600 457 642.8 445.5C685.7 434 728.3 451 771.2 452.5C814 454 857 440 878.5 433L900 426L900 601L878.5 601C857 601 814 601 771.2 601C728.3 601 685.7 601 642.8 601C600 601 557 601 514.2 601C471.3 601 428.7 601 385.8 601C343 601 300 601 257.2 601C214.3 601 171.7 601 128.8 601C86 601 43 601 21.5 601L0 601Z" fill="#006" stroke-linecap="round" stroke-linejoin="miter"></path></svg>